<mxfile host="app.diagrams.net" agent="Mozilla/5.0 (Windows NT 10.0; Win64; x64) AppleWebKit/537.36 (KHTML, like Gecko) Chrome/128.0.0.0 Safari/537.36 Edg/128.0.0.0" version="24.7.10">
  <diagram name="Page-1" id="jOQu8aM6xllvkQo-hAW9">
    <mxGraphModel dx="1303" dy="709" grid="1" gridSize="10" guides="1" tooltips="1" connect="1" arrows="1" fold="1" page="1" pageScale="1" pageWidth="850" pageHeight="1100" math="0" shadow="0">
      <root>
        <mxCell id="0" />
        <mxCell id="1" parent="0" />
        <mxCell id="OUb1y9qrvekkct39HtPh-3" value="NEOBT Advanced Reporting" style="verticalLabelPosition=bottom;html=1;verticalAlign=top;align=center;strokeColor=none;fillColor=#00BEF2;shape=mxgraph.azure.laptop;pointerEvents=1;" vertex="1" parent="1">
          <mxGeometry x="150.33" y="390" width="183.33" height="110" as="geometry" />
        </mxCell>
        <mxCell id="OUb1y9qrvekkct39HtPh-4" value="Fineract API server" style="image;points=[];aspect=fixed;html=1;align=center;shadow=0;dashed=0;image=img/lib/allied_telesis/storage/Datacenter_Server_Half_Rack_ToR.svg;" vertex="1" parent="1">
          <mxGeometry x="510" y="370" width="128.2" height="166.57" as="geometry" />
        </mxCell>
        <mxCell id="OUb1y9qrvekkct39HtPh-6" value="SESAME Platform" style="sketch=0;html=1;aspect=fixed;strokeColor=none;shadow=0;align=center;fillColor=#2D9C5E;verticalAlign=top;labelPosition=center;verticalLabelPosition=bottom;shape=mxgraph.gcp2.external_data_center" vertex="1" parent="1">
          <mxGeometry x="204" y="140" width="77" height="100" as="geometry" />
        </mxCell>
        <mxCell id="OUb1y9qrvekkct39HtPh-8" style="edgeStyle=orthogonalEdgeStyle;rounded=0;orthogonalLoop=1;jettySize=auto;html=1;exitX=0.5;exitY=0;exitDx=0;exitDy=0;exitPerimeter=0;entryX=0.493;entryY=0.96;entryDx=0;entryDy=0;entryPerimeter=0;" edge="1" parent="1" source="OUb1y9qrvekkct39HtPh-3" target="OUb1y9qrvekkct39HtPh-6">
          <mxGeometry relative="1" as="geometry" />
        </mxCell>
        <mxCell id="OUb1y9qrvekkct39HtPh-10" style="edgeStyle=orthogonalEdgeStyle;rounded=0;orthogonalLoop=1;jettySize=auto;html=1;exitX=0.92;exitY=0.5;exitDx=0;exitDy=0;exitPerimeter=0;entryX=0.04;entryY=0.444;entryDx=0;entryDy=0;entryPerimeter=0;" edge="1" parent="1" source="OUb1y9qrvekkct39HtPh-3" target="OUb1y9qrvekkct39HtPh-4">
          <mxGeometry relative="1" as="geometry" />
        </mxCell>
        <mxCell id="OUb1y9qrvekkct39HtPh-11" value="" style="sketch=0;pointerEvents=1;shadow=0;dashed=0;html=1;strokeColor=none;fillColor=#505050;labelPosition=center;verticalLabelPosition=bottom;verticalAlign=top;outlineConnect=0;align=center;shape=mxgraph.office.users.user_external;" vertex="1" parent="1">
          <mxGeometry x="190" y="550" width="59" height="50" as="geometry" />
        </mxCell>
      </root>
    </mxGraphModel>
  </diagram>
</mxfile>
